<mxfile host="app.diagrams.net" modified="2022-10-06T10:09:56.158Z" agent="5.0 (Windows NT 6.3; Win64; x64) AppleWebKit/537.36 (KHTML, like Gecko) Chrome/106.0.0.0 Safari/537.36" etag="-TW41ItHgjMeLw1HvBvW" version="20.4.0" type="github">
  <diagram id="f0mPsmwEh7pTVDcS96uz" name="Page-1">
    <mxGraphModel dx="526" dy="482" grid="1" gridSize="10" guides="1" tooltips="1" connect="1" arrows="1" fold="1" page="1" pageScale="1" pageWidth="827" pageHeight="1169" math="0" shadow="0">
      <root>
        <mxCell id="0" />
        <mxCell id="1" parent="0" />
        <mxCell id="o7oF17A1aDBOiRQJ-C7T-1" value="start" style="ellipse;whiteSpace=wrap;html=1;" vertex="1" parent="1">
          <mxGeometry x="250" y="50" width="90" height="50" as="geometry" />
        </mxCell>
        <mxCell id="o7oF17A1aDBOiRQJ-C7T-2" value="" style="endArrow=classic;html=1;rounded=0;exitX=0.5;exitY=1;exitDx=0;exitDy=0;" edge="1" parent="1" source="o7oF17A1aDBOiRQJ-C7T-1">
          <mxGeometry width="50" height="50" relative="1" as="geometry">
            <mxPoint x="250" y="250" as="sourcePoint" />
            <mxPoint x="295" y="150" as="targetPoint" />
          </mxGeometry>
        </mxCell>
        <mxCell id="o7oF17A1aDBOiRQJ-C7T-5" value="motor b run -350 dgrees" style="shape=parallelogram;perimeter=parallelogramPerimeter;whiteSpace=wrap;html=1;fixedSize=1;" vertex="1" parent="1">
          <mxGeometry x="235" y="150" width="120" height="60" as="geometry" />
        </mxCell>
        <mxCell id="o7oF17A1aDBOiRQJ-C7T-6" value="" style="endArrow=classic;html=1;rounded=0;" edge="1" parent="1" target="o7oF17A1aDBOiRQJ-C7T-7">
          <mxGeometry width="50" height="50" relative="1" as="geometry">
            <mxPoint x="294.5" y="210" as="sourcePoint" />
            <mxPoint x="294.5" y="290" as="targetPoint" />
          </mxGeometry>
        </mxCell>
        <mxCell id="o7oF17A1aDBOiRQJ-C7T-7" value="move forward 8 rotattion" style="rounded=0;whiteSpace=wrap;html=1;" vertex="1" parent="1">
          <mxGeometry x="234.5" y="260" width="120" height="60" as="geometry" />
        </mxCell>
        <mxCell id="o7oF17A1aDBOiRQJ-C7T-8" value="" style="endArrow=classic;html=1;rounded=0;" edge="1" parent="1">
          <mxGeometry width="50" height="50" relative="1" as="geometry">
            <mxPoint x="294.5" y="320" as="sourcePoint" />
            <mxPoint x="294.5" y="390" as="targetPoint" />
            <Array as="points" />
          </mxGeometry>
        </mxCell>
        <mxCell id="o7oF17A1aDBOiRQJ-C7T-9" value="motor c run -350 dgrees" style="shape=parallelogram;perimeter=parallelogramPerimeter;whiteSpace=wrap;html=1;fixedSize=1;" vertex="1" parent="1">
          <mxGeometry x="234.5" y="390" width="120" height="60" as="geometry" />
        </mxCell>
        <mxCell id="o7oF17A1aDBOiRQJ-C7T-10" value="" style="endArrow=classic;html=1;rounded=0;" edge="1" parent="1" target="o7oF17A1aDBOiRQJ-C7T-11">
          <mxGeometry width="50" height="50" relative="1" as="geometry">
            <mxPoint x="294" y="450" as="sourcePoint" />
            <mxPoint x="294" y="520" as="targetPoint" />
          </mxGeometry>
        </mxCell>
        <mxCell id="o7oF17A1aDBOiRQJ-C7T-11" value="move forward 8 rotation&amp;nbsp;" style="rounded=0;whiteSpace=wrap;html=1;" vertex="1" parent="1">
          <mxGeometry x="241.75" y="490" width="105.5" height="50" as="geometry" />
        </mxCell>
        <mxCell id="o7oF17A1aDBOiRQJ-C7T-12" value="" style="endArrow=classic;html=1;rounded=0;" edge="1" parent="1" source="o7oF17A1aDBOiRQJ-C7T-11">
          <mxGeometry width="50" height="50" relative="1" as="geometry">
            <mxPoint x="220" y="610" as="sourcePoint" />
            <mxPoint x="295" y="600" as="targetPoint" />
          </mxGeometry>
        </mxCell>
        <mxCell id="o7oF17A1aDBOiRQJ-C7T-13" value="end&amp;nbsp;" style="ellipse;whiteSpace=wrap;html=1;" vertex="1" parent="1">
          <mxGeometry x="257.5" y="600" width="75" height="50" as="geometry" />
        </mxCell>
        <mxCell id="o7oF17A1aDBOiRQJ-C7T-14" value="" style="curved=1;endArrow=classic;html=1;rounded=0;entryX=1;entryY=0.75;entryDx=0;entryDy=0;" edge="1" parent="1" target="o7oF17A1aDBOiRQJ-C7T-9">
          <mxGeometry width="50" height="50" relative="1" as="geometry">
            <mxPoint x="347.25" y="520" as="sourcePoint" />
            <mxPoint x="460" y="490" as="targetPoint" />
            <Array as="points">
              <mxPoint x="450" y="540" />
              <mxPoint x="470" y="510" />
            </Array>
          </mxGeometry>
        </mxCell>
      </root>
    </mxGraphModel>
  </diagram>
</mxfile>
